<?xml version="1.0" encoding="utf-8"?>
<svg width="24" height="24" viewBox="0 0 24 24" fill="none" xmlns="http://www.w3.org/2000/svg">
  <rect width="24" height="24" rx="4" fill="#0A66C2"/>
  <path d="M7.5 8.5C8.32843 8.5 9 7.82843 9 7C9 6.17157 8.32843 5.5 7.5 5.5C6.67157 5.5 6 6.17157 6 7C6 7.82843 6.67157 8.5 7.5 8.5Z" fill="white"/>
  <rect x="6" y="10" width="3" height="8" rx="1.5" fill="white"/>
  <path d="M13.5 10C12.1193 10 11 11.1193 11 12.5V18H14V13.5C14 13.2239 14.2239 13 14.5 13C14.7761 13 15 13.2239 15 13.5V18H18V13.5C18 11.567 16.433 10 14.5 10H13.5Z" fill="white"/>
</svg>
